# xmcd
#
# Track frame offsets:
#	150
#	20330
#	36709
#	57281
#	78470
#	93015
#	105065
#	119090
#	149303
#	172850
#	189204
#
# Disc length: 2848 seconds
#
# Revision: 1
# Processed by: cddbd v1.5.1PL2 Copyright (c) Steve Scherf et al.
# Submitted via: audiograbber 1.83.01
#
DISCID=840b1e0b
DTITLE=The Boogaloo Kings - Acidboogie
DYEAR=2006
DGENRE=Blues
TTITLE0=Acidboogie
TTITLE1=Watch Out
TTITLE2=Zig Zag Woman
TTITLE3=Wino Ballad
TTITLE4=Liza Jane
TTITLE5=Marschackerboogie
TTITLE6=Tired Of This
TTITLE7=Traditional Mix
TTITLE8=Bag Packing Blues
TTITLE9=Why Do I
TTITLE10=Professor Blues
EXTD=
EXTT0=
EXTT1=
EXTT2=
EXTT3=
EXTT4=
EXTT5=
EXTT6=
EXTT7=
EXTT8=
EXTT9=
EXTT10=
PLAYORDER=
